/vscmnt/brussel_pixiu_data/_data_brussel/112/vsc11236/PredSimResults/SUBJ07opt3D/weighted-LRposFixed/expIG/worker_03.mot
version=1
nRows=9
nColumns=50
inDegrees=yes
endheader
                time	         pelvis_tilt	         pelvis_list	     pelvis_rotation	           pelvis_tx	           pelvis_ty	           pelvis_tz	       hip_flexion_r	     hip_adduction_r	      hip_rotation_r	        knee_angle_r	       ankle_angle_r	         mtp_angle_r	       hip_flexion_l	     hip_adduction_l	      hip_rotation_l	        knee_angle_l	       ankle_angle_l	         mtp_angle_l	    lumbar_extension	      lumbar_bending	     lumbar_rotation	 ercspn_r/activation	 intobl_r/activation	 extobl_r/activation	    abd_r/activation	    add_r/activation	hamstrings_r/activation	bifemsh_r/activation	glut_max_r/activation	iliopsoas_r/activation	rect_fem_r/activation	  vasti_r/activation	gastroc_r/activation	 soleus_r/activation	tib_ant_r/activation	 ercspn_l/activation	 intobl_l/activation	 extobl_l/activation	    abd_l/activation	    add_l/activation	hamstrings_l/activation	bifemsh_l/activation	glut_max_l/activation	iliopsoas_l/activation	rect_fem_l/activation	  vasti_l/activation	gastroc_l/activation	 soleus_l/activation	tib_ant_l/activation	
          0.55457133	         -4.36706431	          0.23766453	         -9.69572907	          0.68766845	          0.84560358	          0.01454538	        -14.82359904	         -0.23487538	          5.35501312	         -8.87404485	          8.05372439	         29.45444411	         31.26822196	         -2.85203500	         -6.09638215	         -8.21461818	          2.63592020	          0.27398865	        -12.09742936	          1.24381392	          1.53980453	          0.11870715	          0.00999999	          0.00999999	          0.03122966	          0.05935380	          0.01739293	          0.16094120	          0.01970895	          0.42125181	          0.01184857	          0.01137014	          0.17029116	          0.32099464	          0.01666920	          0.12491004	          0.12635490	          0.01000000	          0.01483795	          0.18631128	          0.08885425	          0.11072426	          0.11027290	          0.04616087	          0.01000003	          0.00999999	          0.01000000	          0.00999999	          0.43040246	
          0.56566276	         -4.35243772	          0.18902614	         -9.73756213	          0.70433257	          0.84385214	          0.01404683	        -15.35618955	         -0.34225804	          5.04591195	         -9.93914711	          7.05441389	         31.07401348	         31.28229860	         -2.66702691	         -5.80549760	        -10.24174053	          2.27672452	          0.25012167	        -11.93190613	          0.89160785	          1.74097724	          0.14174142	          0.00999999	          0.01000000	          0.02635732	          0.09209134	          0.01467949	          0.13605407	          0.01663403	          0.40661451	          0.01000001	          0.00999999	          0.14372295	          0.29952065	          0.01406853	          0.10542204	          0.12664158	          0.00999999	          0.01252299	          0.17435450	          0.07736510	          0.09699213	          0.17542157	          0.03895902	          0.01000000	          0.00999999	          0.01403840	          0.01184856	          0.47655713	
          0.57675419	         -4.33212921	          0.12788986	         -9.72150609	          0.72113271	          0.84233552	          0.01347910	        -15.66966845	         -0.40701849	          4.68358882	        -11.42575837	          5.95350348	         32.64882604	         31.13474716	         -2.51984283	         -5.49005729	        -12.03280301	          1.87678000	          0.24040445	        -11.76848594	          0.54896166	          1.93015025	          0.16266815	          0.00999999	          0.00999999	          0.02224515	          0.08342968	          0.01259320	          0.11482756	          0.01403885	          0.35783854	          0.01000001	          0.00999999	          0.12129982	          0.27569992	          0.01187361	          0.13844094	          0.10688342	          0.00999999	          0.09158905	          0.18583344	          0.06743839	          0.09490268	          0.18566819	          0.03288077	          0.00999999	          0.00999999	          0.01184818	          0.00999999	          0.55209098	
          0.58784561	         -4.30782068	          0.04551762	         -9.64978583	          0.73787034	          0.84120018	          0.01282046	        -15.70814581	         -0.42167804	          4.27645203	        -13.39156805	          4.70814058	         34.11293658	         30.91541539	         -2.38615402	         -5.23684160	        -13.69115090	          1.48395464	          0.21875901	        -11.62683120	          0.22651835	          2.10480137	          0.20074946	          0.00999999	          0.00999999	          0.01877454	          0.08119635	          0.01440802	          0.09691332	          0.01184856	          0.30200988	          0.01000001	          0.00999999	          0.10237506	          0.23985343	          0.01002113	          0.15512975	          0.09020786	          0.00999999	          0.14785467	          0.19361433	          0.05691691	          0.08009631	          0.21814654	          0.02775083	          0.00999999	          0.00999999	          0.00999999	          0.00999999	          0.57159109	
          0.59893704	         -4.28012457	         -0.04649983	         -9.52835484	          0.75435303	          0.84060021	          0.01208465	        -15.41773275	         -0.39930496	          3.83451648	        -15.89298141	          3.32604287	         35.28146128	         30.72429536	         -2.25929806	         -5.03094446	        -15.42592056	          1.39861579	          0.19477669	        -11.51951155	         -0.08949941	          2.26127175	          0.24306748	          0.00999999	          0.00999999	          0.01584541	          0.09995094	          0.01546538	          0.09183098	          0.00999999	          0.25489139	          0.01000000	          0.00999999	          0.08640287	          0.20243236	          0.00999999	          0.16357965	          0.07613396	          0.00999999	          0.18884866	          0.21094303	          0.04803951	          0.06759998	          0.24292604	          0.02342125	          0.01000000	          0.03059625	          0.00999999	          0.00999999	          0.56198400	
          0.61002847	         -4.25060782	         -0.14139271	         -9.35959881	          0.77044101	          0.84067241	          0.01128525	        -14.74893554	         -0.34793958	          3.36276479	        -18.98324215	          1.83125129	         35.88560838	         30.57994395	         -2.13350649	         -4.86322484	        -17.24773346	          1.66887589	          0.17538559	        -11.45232781	         -0.40438382	          2.39666460	          0.26926704	          0.00999999	          0.00999999	          0.01337326	          0.13142082	          0.01655083	          0.07750393	          0.00999999	          0.21512416	          0.01000000	          0.00999999	          0.07292261	          0.17084960	          0.00999999	          0.17372755	          0.06425581	          0.00999999	          0.20773753	          0.22886577	          0.04329657	          0.05705328	          0.25175657	          0.01976715	          0.01000000	          0.06148090	          0.00999999	          0.00999999	          0.50281462	
          0.62111989	         -4.22103657	         -0.23927645	         -9.14574405	          0.78612509	          0.84144620	          0.01044362	        -13.69056086	         -0.27266709	          2.87619507	        -22.64652506	          0.16660508	         35.77238234	         30.40971231	         -2.00126353	         -4.71296707	        -19.01057014	          2.27238207	          0.18336020	        -11.41553014	         -0.71520568	          2.50957775	          0.28800876	          0.00999999	          0.00999999	          0.01128682	          0.15949156	          0.01641072	          0.06541230	          0.00999999	          0.18156127	          0.01000000	          0.00999999	          0.06154549	          0.14419427	          0.00999999	          0.15898541	          0.05423085	          0.00999999	          0.21288490	          0.23583980	          0.04215978	          0.04815204	          0.24090507	          0.01668315	          0.01000000	          0.11097574	          0.01000000	          0.00999999	          0.42436731	
          0.63221132	         -4.19473462	         -0.33968494	         -8.88846032	          0.80142667	          0.84289417	          0.00956580	        -12.26281986	         -0.18020913	          2.40813362	        -26.77087708	         -1.83766682	         34.96343436	         30.10670683	         -1.84879362	         -4.54502982	        -20.50325609	          3.12659990	          0.26553960	        -11.39907044	         -1.01617230	          2.60131881	          0.28559055	          0.00999999	          0.00999999	          0.00999999	          0.16948306	          0.01385044	          0.06363013	          0.00999999	          0.15323474	          0.01000000	          0.00999999	          0.05194339	          0.12169760	          0.00999999	          0.13418108	          0.04576995	          0.00999999	          0.21407532	          0.22785468	          0.04884527	          0.04063953	          0.20673969	          0.01408031	          0.01000000	          0.14981354	          0.01000000	          0.00999999	          0.35815906	
          0.64330275	         -4.17525618	         -0.44206402	         -8.58804101	          0.81634263	          0.84493010	          0.00865172	        -10.50807672	         -0.07168000	          1.99847960	        -31.19675440	         -4.27839199	         33.42772085	         29.60979427	         -1.66651925	         -4.32433559	        -21.57838443	          4.01670886	          0.42333278	        -11.40117666	         -1.30259685	          2.67215748	          0.27402122	          0.00999999	          0.00999999	          0.00999999	          0.17363750	          0.02334758	          0.05370281	          0.01000023	          0.12932761	          0.00999999	          0.00999999	          0.04383937	          0.10271078	          0.02015879	          0.11324664	          0.03862909	          0.00999999	          0.20925305	          0.20812273	          0.06196210	          0.03429911	          0.17448491	          0.01188355	          0.00999999	          0.17739370	          0.01000000	          0.00999999	          0.30228039	
